GIL06_free2_RRA_states
nRows=5
nColumns=47

# SIMM Motion File Header:
name GIL06_free2_RRA_states
datacolumns 47
datarows 5
otherdata 1
range 0.87900000000000067000 0.88100000000000067000
endheader
time	pelvis_tx	pelvis_ty	pelvis_tz	pelvis_tilt	pelvis_list	pelvis_rotation	hip_flexion_r	hip_adduction_r	hip_rotation_r	knee_angle_r	ankle_angle_r	subtalar_angle_r	mtp_angle_r	hip_flexion_l	hip_adduction_l	hip_rotation_l	knee_angle_l	ankle_angle_l	subtalar_angle_l	mtp_angle_l	lumbar_extension	lumbar_bending	lumbar_rotation	pelvis_tx_u	pelvis_ty_u	pelvis_tz_u	pelvis_tilt_u	pelvis_list_u	pelvis_rotation_u	hip_flexion_r_u	hip_adduction_r_u	hip_rotation_r_u	knee_angle_r_u	ankle_angle_r_u	subtalar_angle_r_u	mtp_angle_r_u	hip_flexion_l_u	hip_adduction_l_u	hip_rotation_l_u	knee_angle_l_u	ankle_angle_l_u	subtalar_angle_l_u	mtp_angle_l_u	lumbar_extension_u	lumbar_bending_u	lumbar_rotation_u
      0.87900000000000067000	      0.90298435767217311000	      0.82277200374292703000	     -0.24796624777702247000	     -2.89884817536629580000	     -2.34063549577396660000	     -2.00202886374213400000	      5.51114829785566500000	      5.03521572072183070000	      1.49466833290454600000	     -9.51780495003130330000	      5.18461076886198140000	      0.00000000000003429040	     -0.00000000000011204744	     28.53794448563617400000	     -4.78305016973815180000	      0.49178581883498995000	    -54.19280302293949300000	      4.40849601516314140000	      0.00000000000011938697	     -0.00000000000027360203	      7.01799329020354800000	     -2.56333316825954110000	     13.47064382896475900000	      0.85834371108466812000	     -0.06169287108889061300	      0.02838657146502883100	      2.84321267229539790000	     29.23482617695560400000	    -34.29912280693048400000	   -102.19372851867477000000	    -19.88371156525344200000	     15.65398799619551800000	     43.30351140862122600000	     37.90592138033902400000	      0.00000000000026359414	     -0.00000000000051799186	     74.50399104484026200000	     40.32048043712493500000	    -17.62844328518549000000	    252.67709724188069000000	     70.82031719319456900000	      0.00000000000016584106	     -0.00000000000052944731	    -13.29698918903473400000	    -37.39975353372909000000	     48.96289648911528000000
      0.87950000000000061000	      0.90341353989455042000	      0.82274098252593064000	     -0.24795205146547972000	     -2.89743932169266220000	     -2.32599108137539150000	     -2.01922025600833610000	      5.46007968645060430000	      5.02524939256788890000	      1.50270080088751490000	     -9.49618233951022010000	      5.20353495099622520000	      0.00000000000003442148	     -0.00000000000011230713	     28.57505934627498300000	     -4.76289357373344830000	      0.48289604597227198000	    -54.06615412558472400000	      4.44367897977207790000	      0.00000000000011946980	     -0.00000000000027386677	      7.01137036404850100000	     -2.58205445377737550000	     13.49514852873713600000	      0.85838544043934173000	     -0.06239252300211151800	      0.02839725394035639400	      2.79187270059621940000	     29.34270929991623000000	    -34.46615254738799900000	   -102.08003512131990000000	    -19.98190378714354100000	     16.47492478772822700000	     43.18637810158882900000	     37.79061281357113700000	      0.00000000000025683151	     -0.00000000000050200468	     73.95585788255364400000	     40.30602913976771600000	    -17.92973839885302900000	    253.91746644323320000000	     69.91152928343399300000	      0.00000000000016524631	     -0.00000000000052862894	    -13.19430733053141000000	    -37.48498349298149900000	     49.05530063519088900000
      0.88000000000000067000	      0.90384274337475590000	      0.82270961069087167000	     -0.24793785193977735000	     -2.89605663359023650000	     -2.31129290822391640000	     -2.03649472547542710000	      5.40906894724077690000	      5.01523351648387910000	      1.51114230687130040000	     -9.47461912849339250000	      5.22240125915312170000	      0.00000000000003455221	     -0.00000000000011256382	     28.61190075277705700000	     -4.74274401527035660000	      0.47385698968900530000	    -53.93888658578927000000	      4.47840753330010880000	      0.00000000000011955250	     -0.00000000000027413167	      7.00479939265019970000	     -2.60081774620655230000	     13.51969853067766200000	      0.85842874259484192000	     -0.06309534838976560400	      0.02839943621515046000	      2.73854723527388360000	     29.44986179495217400000	    -34.63143719529643500000	   -101.96223480382147000000	    -20.08189861493298900000	     17.29015561096139900000	     43.06590552126046800000	     37.67456880103095100000	      0.00000000000027316703	     -0.00000000000053811269	     73.41018096922529400000	     40.29232982462303900000	    -18.22557760506411400000	    255.15165833416484000000	     69.00267565174351600000	      0.00000000000016550886	     -0.00000000000053180845	    -13.08916692395427700000	    -37.56778007363932700000	     49.14411113331882300000
      0.88050000000000062000	      0.90427196890181860000	      0.82267788665815411000	     -0.24792365344992806000	     -2.89470110118389280000	     -2.29654134788723140000	     -2.05385140026237640000	      5.35811813254418020000	      5.00516720190935780000	      1.51998998656789900000	     -9.45311699379885080000	      5.24120940563213540000	      0.00000000000003468939	     -0.00000000000011283652	     28.64846993420911800000	     -4.72260112262759170000	      0.46467138569335859000	    -53.81100350090984800000	      4.51268163656899550000	      0.00000000000011963513	     -0.00000000000027439745	      6.99828160116779420000	     -2.61962182006971700000	     13.54429203721753300000	      0.85847363273818389000	     -0.06380128922025891900	      0.02839309450851365900	      2.68326147785397670000	     29.55624432743712800000	    -34.79496400043764500000	   -101.84034924538186000000	    -20.18364559276322700000	     18.09956583534605900000	     42.94207419471675300000	     37.55783948869067500000	      0.00000000000028557920	     -0.00000000000058482174	     72.86694650704792800000	     40.27935823233288200000	    -18.51591248228734800000	    256.37964674217460000000	     68.09371003621345200000	      0.00000000000016505568	     -0.00000000000053074134	    -12.98160239846666100000	    -37.64809387677364300000	     49.22930561288868700000
      0.88100000000000067000	      0.90470121727463682000	      0.82264580889187666000	     -0.24790946026992375000	     -2.89337369469745380000	     -2.28173679871433600000	     -2.07128939444750860000	      5.30722927542289470000	      4.99504958716397060000	      1.52924088353405810000	     -9.43167761761281480000	      5.25995899053756230000	      0.00000000000003482975	     -0.00000000000011312460	     28.68476810402544400000	     -4.70246453975406720000	      0.45534200265952979000	    -53.68250797715592900000	      4.54650121695756400000	      0.00000000000011971784	     -0.00000000000027466275	      6.99181818859308630000	     -2.63846541810705080000	     13.56892722995003600000	      0.85852012567423863000	     -0.06451028784557799600	      0.02837820486450291800	      2.62604026850287250000	     29.66181782580929700000	    -34.95672043194090900000	   -101.71439925016564000000	    -20.28709483018174000000	     18.90303999395917600000	     42.81486309948550700000	     37.44046123829316700000	      0.00000000000028768685	     -0.00000000000060293821	     72.32614118569426900000	     40.26709035562940600000	    -18.80069426576338300000	    257.60140495997223000000	     67.18458730597649300000	      0.00000000000016554622	     -0.00000000000053087150	    -12.87164794591809900000	    -37.72587572543125100000	     49.31086194417334000000
